Coordinates
version=1
nRows=21
nColumns=22
inDegrees=yes

Units are S.I. units (second, meters, Newtons, ...)
If the header above contains a line with 'inDegrees', this indicates whether rotational values are in degrees (yes) or radians (no).

endheader
time	pelvis_tilt	pelvis_list	pelvis_rotation	pelvis_tx	pelvis_ty	pelvis_tz	hip_flexion_r	hip_adduction_r	hip_rotation_r	knee_angle_r	ankle_angle_r	subtalar_angle_r	hip_flexion_l	hip_adduction_l	hip_rotation_l	knee_angle_l	ankle_angle_l	subtalar_angle_l	lumbar_extension	lumbar_bending	lumbar_rotation
      2.48000000	     -0.08121544	      3.85679688	    -43.35681709	     -0.09821146	      0.91239107	     -0.12917584	     -3.69919099	     -0.33559308	      3.33889129	    -41.37918442	     -5.68543219	      6.13247338	     25.45168770	      3.90650440	      6.89488904	    -27.85960749	      5.21801520	      3.77545944	     -4.68514718	     -6.99293901	      2.17840042
      2.49000000	      0.19167242	      4.10966804	    -44.20253394	     -0.09175841	      0.91407922	     -0.12354591	     -1.84141144	     -1.25412790	      2.53159910	    -44.52626291	     -7.06288979	      7.54772688	     24.45367796	      4.02279065	      6.06761116	    -27.26251405	      5.59749447	      3.42069594	     -4.81594795	     -7.41452815	      2.19603218
      2.50000000	      0.46744683	      4.36177297	    -45.05234715	     -0.08555317	      0.91554264	     -0.11810210	      0.13127634	     -2.19666768	      1.80806541	    -47.69174964	     -8.01206271	      8.70781251	     23.51860729	      4.16719015	      5.21973118	    -26.71990787	      5.94837064	      3.09066676	     -4.97744458	     -7.82431177	      2.14226056
      2.51000000	      0.74581821	      4.59800802	    -45.88521519	     -0.07952435	      0.91680526	     -0.11281189	      2.16790663	     -3.12325635	      1.18231878	    -50.79429562	     -8.54766210	      9.53603481	     22.63023928	      4.33933685	      4.39415591	    -26.23472303	      6.29434368	      2.77445960	     -5.17249305	     -8.21009655	      2.00340902
      2.52000000	      1.07078059	      4.79103064	    -46.69489417	     -0.07359396	      0.91798535	     -0.10762311	      4.17579002	     -4.03761990	      0.63588722	    -53.75836995	     -8.68520904	      9.89434112	     21.69933649	      4.56220231	      3.65256427	    -25.75618503	      6.62057390	      2.58654554	     -5.44818907	     -8.58899513	      1.82202557
      2.53000000	      1.35935582	      4.96987387	    -47.44696957	     -0.06773837	      0.91893177	     -0.10256379	      6.21858776	     -4.87344121	      0.16516920	    -56.55115681	     -8.37362850	     10.08172392	     20.86769583	      4.78954252	      2.93339894	    -25.38903069	      6.99067002	      2.31000599	     -5.70970616	     -8.91203906	      1.54302353
      2.54000000	      1.60877635	      5.12534042	    -48.12635983	     -0.06192894	      0.91971578	     -0.09758315	      8.25940032	     -5.61001588	     -0.26447391	    -59.11479395	     -7.75160888	      9.94694117	     20.11332089	      5.00584532	      2.23278166	    -25.11098179	      7.35386851	      1.89347249	     -5.95752862	     -9.17494971	      1.15238025
      2.55000000	      1.87853322	      5.20826480	    -48.73157460	     -0.05610026	      0.92051169	     -0.09263077	     10.17822412	     -6.26283884	     -0.68122522	    -61.39838166	     -6.87993933	      9.48869598	     19.29037211	      5.24306605	      1.69909248	    -24.82970432	      7.79027541	      1.50901960	     -6.27733192	     -9.39110364	      0.72491821
      2.56000000	      2.15883952	      5.22141753	    -49.25423169	     -0.05026273	      0.92134629	     -0.08768262	     11.96322778	     -6.81879478	     -1.09246798	    -63.37330605	     -5.87157540	      8.91881173	     18.42437484	      5.47601800	      1.23916159	    -24.57081362	      8.18243622	      1.20660663	     -6.65832141	     -9.55908303	      0.21308720
      2.57000000	      2.42826003	      5.15321175	    -49.68619344	     -0.04442924	      0.92223105	     -0.08273218	     13.60295956	     -7.24854454	     -1.51495425	    -65.02165054	     -4.81089731	      8.25998029	     17.52366664	      5.68041373	      0.88521846	    -24.34671285	      8.57458512	      0.91100471	     -7.09690035	     -9.65419453	     -0.36226997
      2.58000000	      2.68094584	      5.00248240	    -50.04040172	     -0.03861611	      0.92318139	     -0.07774930	     15.09152749	     -7.54071936	     -1.93707884	    -66.33504067	     -3.77861664	      7.59490969	     16.58576293	      5.84059811	      0.61959235	    -24.15315074	      8.96455439	      0.63765030	     -7.58568751	     -9.67491701	     -0.97650893
      2.59000000	      2.91916607	      4.77573400	    -50.33740946	     -0.03285148	      0.92419602	     -0.07271208	     16.43257803	     -7.69679027	     -2.34105507	    -67.31618112	     -2.81485649	      6.99177110	     15.61574256	      5.95215976	      0.41537156	    -23.99487611	      9.34191170	      0.39264963	     -8.11819964	     -9.63153564	     -1.60745786
      2.60000000	      3.12074115	      4.46842807	    -50.58852815	     -0.02717016	      0.92526251	     -0.06759679	     17.63110309	     -7.68467168	     -2.71432506	    -67.95978091	     -1.92349781	      6.47313073	     14.62118122	      5.98687004	      0.27141558	    -23.86863711	      9.73806770	      0.16914262	     -8.67949613	     -9.50632743	     -2.22935114
      2.61000000	      3.28083658	      4.10489415	    -50.81050743	     -0.02158230	      0.92633696	     -0.06239754	     18.71437103	     -7.52051019	     -3.04708191	    -68.27575240	     -1.10499250	      6.12651979	     13.62483561	      5.94920638	      0.15423297	    -23.77297476	     10.13061267	     -0.00860003	     -9.23820801	     -9.31248837	     -2.82795859
      2.62000000	      3.41288865	      3.70456100	    -51.01041976	     -0.01613593	      0.92737836	     -0.05715246	     19.70207577	     -7.23451305	     -3.33266644	    -68.28726219	     -0.36167949	      5.89801220	     12.64747662	      5.85875706	      0.04460002	    -23.72706433	     10.54183558	     -0.16334418	     -9.79932622	     -9.08220561	     -3.40539473
      2.63000000	      3.50509006	      3.28767512	    -51.19327733	     -0.01085184	      0.92834428	     -0.05186391	     20.61892084	     -6.83074753	     -3.56121812	    -68.00032016	      0.34764415	      5.80662741	     11.70558305	      5.71721243	     -0.05580796	    -23.71495332	     10.94670646	     -0.28771800	    -10.33690451	     -8.82174057	     -3.95917548
      2.64000000	      3.57005240	      2.87517866	    -51.36016787	     -0.00567467	      0.92921578	     -0.04652262	     21.46669693	     -6.36577126	     -3.76257867	    -67.42012911	      1.03585222	      5.80286373	     10.78557740	      5.54618980	     -0.18189225	    -23.69801535	     11.36897694	     -0.40640570	    -10.83462900	     -8.55218076	     -4.49771752
      2.65000000	      3.59794006	      2.48582086	    -51.51765787	     -0.00064644	      0.92994325	     -0.04114851	     22.27402068	     -5.84190345	     -3.91965795	    -66.56245839	      1.71894357	      5.87732388	      9.91799438	      5.34990963	     -0.32488314	    -23.68945757	     11.79341911	     -0.51426237	    -11.27669800	     -8.28180623	     -5.01971985
      2.66000000	      3.59861056	      2.13379649	    -51.68002081	      0.00426314	      0.93050991	     -0.03573886	     23.04820074	     -5.29344909	     -4.03030839	    -65.44192925	      2.39788403	      5.99408362	      9.09346406	      5.15022448	     -0.47390350	    -23.66710700	     12.21380554	     -0.63058906	    -11.65446704	     -8.02362618	     -5.52075312
      2.67000000	      3.57647403	      1.82303129	    -51.84188886	      0.00908323	      0.93091535	     -0.03027180	     23.78046681	     -4.74920868	     -4.12510381	    -64.06476732	      3.05936667	      6.13007364	      8.30862042	      4.95077218	     -0.65298852	    -23.62629719	     12.63955991	     -0.76703901	    -11.96628599	     -7.78529765	     -6.00576252
      2.68000000	      3.53872155	      1.57354921	    -52.01371773	      0.01383626	      0.93112127	     -0.02476011	     24.49156845	     -4.24314377	     -4.20540723	    -62.45910029	      3.68877810	      6.26123183	      7.57863007	      4.77567625	     -0.85442488	    -23.57506357	     13.06255638	     -0.91293104	    -12.19860716	     -7.58234854	     -6.47720913
